<?xml version="1.0" encoding="UTF-8" standalone="no"?>
<!-- Created with Inkscape (http://www.inkscape.org/) -->

<svg
   xmlns:dc="http://purl.org/dc/elements/1.1/"
   xmlns:cc="http://creativecommons.org/ns#"
   xmlns:rdf="http://www.w3.org/1999/02/22-rdf-syntax-ns#"
   xmlns:svg="http://www.w3.org/2000/svg"
   xmlns="http://www.w3.org/2000/svg"
   xmlns:sodipodi="http://sodipodi.sourceforge.net/DTD/sodipodi-0.dtd"
   xmlns:inkscape="http://www.inkscape.org/namespaces/inkscape"
   preserveAspectRatio="xMinYMin meet"
   viewBox="0 0 300 400"
   id="svg4113"
   version="1.1"
   inkscape:version="0.47 r22583"
   sodipodi:docname="P2ST.svg">
  <defs
     id="defs4115">
    <inkscape:perspective
       sodipodi:type="inkscape:persp3d"
       inkscape:vp_x="0 : 526.18109 : 1"
       inkscape:vp_y="0 : 1000 : 0"
       inkscape:vp_z="744.09448 : 526.18109 : 1"
       inkscape:persp3d-origin="372.04724 : 350.78739 : 1"
       id="perspective4121" />
    <inkscape:perspective
       id="perspective4131"
       inkscape:persp3d-origin="0.5 : 0.33333333 : 1"
       inkscape:vp_z="1 : 0.5 : 1"
       inkscape:vp_y="0 : 1000 : 0"
       inkscape:vp_x="0 : 0.5 : 1"
       sodipodi:type="inkscape:persp3d" />
    <filter
       color-interpolation-filters="sRGB"
       inkscape:collect="always"
       id="filter3630">
      <feGaussianBlur
         inkscape:collect="always"
         stdDeviation="4.3032068"
         id="feGaussianBlur3632" />
    </filter>
    <inkscape:perspective
       id="perspective6631"
       inkscape:persp3d-origin="0.5 : 0.33333333 : 1"
       inkscape:vp_z="1 : 0.5 : 1"
       inkscape:vp_y="0 : 1000 : 0"
       inkscape:vp_x="0 : 0.5 : 1"
       sodipodi:type="inkscape:persp3d" />
    <inkscape:perspective
       id="perspective6710"
       inkscape:persp3d-origin="0.5 : 0.33333333 : 1"
       inkscape:vp_z="1 : 0.5 : 1"
       inkscape:vp_y="0 : 1000 : 0"
       inkscape:vp_x="0 : 0.5 : 1"
       sodipodi:type="inkscape:persp3d" />
    <inkscape:perspective
       id="perspective6710-2"
       inkscape:persp3d-origin="0.5 : 0.33333333 : 1"
       inkscape:vp_z="1 : 0.5 : 1"
       inkscape:vp_y="0 : 1000 : 0"
       inkscape:vp_x="0 : 0.5 : 1"
       sodipodi:type="inkscape:persp3d" />
    <inkscape:perspective
       id="perspective6978"
       inkscape:persp3d-origin="0.5 : 0.33333333 : 1"
       inkscape:vp_z="1 : 0.5 : 1"
       inkscape:vp_y="0 : 1000 : 0"
       inkscape:vp_x="0 : 0.5 : 1"
       sodipodi:type="inkscape:persp3d" />
    <inkscape:perspective
       id="perspective7020"
       inkscape:persp3d-origin="0.5 : 0.33333333 : 1"
       inkscape:vp_z="1 : 0.5 : 1"
       inkscape:vp_y="0 : 1000 : 0"
       inkscape:vp_x="0 : 0.5 : 1"
       sodipodi:type="inkscape:persp3d" />
    <inkscape:perspective
       id="perspective7020-5"
       inkscape:persp3d-origin="0.5 : 0.33333333 : 1"
       inkscape:vp_z="1 : 0.5 : 1"
       inkscape:vp_y="0 : 1000 : 0"
       inkscape:vp_x="0 : 0.5 : 1"
       sodipodi:type="inkscape:persp3d" />
    <inkscape:perspective
       id="perspective7203"
       inkscape:persp3d-origin="0.5 : 0.33333333 : 1"
       inkscape:vp_z="1 : 0.5 : 1"
       inkscape:vp_y="0 : 1000 : 0"
       inkscape:vp_x="0 : 0.5 : 1"
       sodipodi:type="inkscape:persp3d" />
    <inkscape:perspective
       id="perspective7203-3"
       inkscape:persp3d-origin="0.5 : 0.33333333 : 1"
       inkscape:vp_z="1 : 0.5 : 1"
       inkscape:vp_y="0 : 1000 : 0"
       inkscape:vp_x="0 : 0.5 : 1"
       sodipodi:type="inkscape:persp3d" />
    <inkscape:perspective
       id="perspective7203-6"
       inkscape:persp3d-origin="0.5 : 0.33333333 : 1"
       inkscape:vp_z="1 : 0.5 : 1"
       inkscape:vp_y="0 : 1000 : 0"
       inkscape:vp_x="0 : 0.5 : 1"
       sodipodi:type="inkscape:persp3d" />
    <inkscape:perspective
       id="perspective7405"
       inkscape:persp3d-origin="0.5 : 0.33333333 : 1"
       inkscape:vp_z="1 : 0.5 : 1"
       inkscape:vp_y="0 : 1000 : 0"
       inkscape:vp_x="0 : 0.5 : 1"
       sodipodi:type="inkscape:persp3d" />
    <inkscape:perspective
       id="perspective7520"
       inkscape:persp3d-origin="0.5 : 0.33333333 : 1"
       inkscape:vp_z="1 : 0.5 : 1"
       inkscape:vp_y="0 : 1000 : 0"
       inkscape:vp_x="0 : 0.5 : 1"
       sodipodi:type="inkscape:persp3d" />
    <inkscape:perspective
       id="perspective7520-9"
       inkscape:persp3d-origin="0.5 : 0.33333333 : 1"
       inkscape:vp_z="1 : 0.5 : 1"
       inkscape:vp_y="0 : 1000 : 0"
       inkscape:vp_x="0 : 0.5 : 1"
       sodipodi:type="inkscape:persp3d" />
    <inkscape:perspective
       id="perspective7863"
       inkscape:persp3d-origin="0.5 : 0.33333333 : 1"
       inkscape:vp_z="1 : 0.5 : 1"
       inkscape:vp_y="0 : 1000 : 0"
       inkscape:vp_x="0 : 0.5 : 1"
       sodipodi:type="inkscape:persp3d" />
    <inkscape:perspective
       id="perspective7933"
       inkscape:persp3d-origin="0.5 : 0.33333333 : 1"
       inkscape:vp_z="1 : 0.5 : 1"
       inkscape:vp_y="0 : 1000 : 0"
       inkscape:vp_x="0 : 0.5 : 1"
       sodipodi:type="inkscape:persp3d" />
    <inkscape:perspective
       id="perspective7933-4"
       inkscape:persp3d-origin="0.5 : 0.33333333 : 1"
       inkscape:vp_z="1 : 0.5 : 1"
       inkscape:vp_y="0 : 1000 : 0"
       inkscape:vp_x="0 : 0.5 : 1"
       sodipodi:type="inkscape:persp3d" />
    <inkscape:perspective
       id="perspective8151"
       inkscape:persp3d-origin="0.5 : 0.33333333 : 1"
       inkscape:vp_z="1 : 0.5 : 1"
       inkscape:vp_y="0 : 1000 : 0"
       inkscape:vp_x="0 : 0.5 : 1"
       sodipodi:type="inkscape:persp3d" />
    <inkscape:perspective
       id="perspective8173"
       inkscape:persp3d-origin="0.5 : 0.33333333 : 1"
       inkscape:vp_z="1 : 0.5 : 1"
       inkscape:vp_y="0 : 1000 : 0"
       inkscape:vp_x="0 : 0.5 : 1"
       sodipodi:type="inkscape:persp3d" />
    <inkscape:perspective
       id="perspective8173-3"
       inkscape:persp3d-origin="0.5 : 0.33333333 : 1"
       inkscape:vp_z="1 : 0.5 : 1"
       inkscape:vp_y="0 : 1000 : 0"
       inkscape:vp_x="0 : 0.5 : 1"
       sodipodi:type="inkscape:persp3d" />
    <inkscape:perspective
       id="perspective8427"
       inkscape:persp3d-origin="0.5 : 0.33333333 : 1"
       inkscape:vp_z="1 : 0.5 : 1"
       inkscape:vp_y="0 : 1000 : 0"
       inkscape:vp_x="0 : 0.5 : 1"
       sodipodi:type="inkscape:persp3d" />
    <inkscape:perspective
       id="perspective8558"
       inkscape:persp3d-origin="0.5 : 0.33333333 : 1"
       inkscape:vp_z="1 : 0.5 : 1"
       inkscape:vp_y="0 : 1000 : 0"
       inkscape:vp_x="0 : 0.5 : 1"
       sodipodi:type="inkscape:persp3d" />
    <inkscape:perspective
       id="perspective8558-2"
       inkscape:persp3d-origin="0.5 : 0.33333333 : 1"
       inkscape:vp_z="1 : 0.5 : 1"
       inkscape:vp_y="0 : 1000 : 0"
       inkscape:vp_x="0 : 0.5 : 1"
       sodipodi:type="inkscape:persp3d" />
    <inkscape:perspective
       id="perspective9030"
       inkscape:persp3d-origin="0.5 : 0.33333333 : 1"
       inkscape:vp_z="1 : 0.5 : 1"
       inkscape:vp_y="0 : 1000 : 0"
       inkscape:vp_x="0 : 0.5 : 1"
       sodipodi:type="inkscape:persp3d" />
    <filter
       color-interpolation-filters="sRGB"
       inkscape:collect="always"
       id="filter4244"
       x="-0.075330071"
       width="1.1506602"
       y="-0.17653863"
       height="1.3530773">
      <feGaussianBlur
         inkscape:collect="always"
         stdDeviation="5.7644049"
         id="feGaussianBlur4246" />
    </filter>
    <inkscape:perspective
       id="perspective9030-8"
       inkscape:persp3d-origin="0.5 : 0.33333333 : 1"
       inkscape:vp_z="1 : 0.5 : 1"
       inkscape:vp_y="0 : 1000 : 0"
       inkscape:vp_x="0 : 0.5 : 1"
       sodipodi:type="inkscape:persp3d" />
    <filter
       color-interpolation-filters="sRGB"
       inkscape:collect="always"
       id="filter4244-4"
       x="-0.075330071"
       width="1.1506602"
       y="-0.17653863"
       height="1.3530773">
      <feGaussianBlur
         inkscape:collect="always"
         stdDeviation="5.7644049"
         id="feGaussianBlur4246-7" />
    </filter>
    <inkscape:perspective
       id="perspective9139"
       inkscape:persp3d-origin="0.5 : 0.33333333 : 1"
       inkscape:vp_z="1 : 0.5 : 1"
       inkscape:vp_y="0 : 1000 : 0"
       inkscape:vp_x="0 : 0.5 : 1"
       sodipodi:type="inkscape:persp3d" />
    <inkscape:perspective
       id="perspective9161"
       inkscape:persp3d-origin="0.5 : 0.33333333 : 1"
       inkscape:vp_z="1 : 0.5 : 1"
       inkscape:vp_y="0 : 1000 : 0"
       inkscape:vp_x="0 : 0.5 : 1"
       sodipodi:type="inkscape:persp3d" />
  </defs>
  <sodipodi:namedview
     id="base"
     pagecolor="#ffffff"
     bordercolor="#ffffff"
     borderopacity="0.0"
     inkscape:pageopacity="0.0"
     inkscape:pageshadow="0"
     inkscape:zoom="0.98994949"
     inkscape:cx="-78.06719"
     inkscape:cy="175.3281"
     inkscape:document-units="px"
     inkscape:current-layer="layer1"
     showgrid="false"
     inkscape:window-width="1366"
     inkscape:window-height="718"
     inkscape:window-x="0"
     inkscape:window-y="0"
     inkscape:window-maximized="1" />
  <metadata
     id="metadata4118">
    <rdf:RDF>
      <cc:Work
         rdf:about="">
        <dc:format>image/svg+xml</dc:format>
        <dc:type
           rdf:resource="http://purl.org/dc/dcmitype/StillImage" />
        <dc:title />
      </cc:Work>
    </rdf:RDF>
  </metadata>
  <g
     inkscape:label="Layer 1"
     inkscape:groupmode="layer"
     id="layer1"
     transform="translate(-627.58389,-598.60332)">
    <g
       id="g3637"
       transform="matrix(0.89642248,0,0,0.89642248,1256.654,325.29161)"
       inkscape:export-filename="/home/batsy/projects/set/test.png"
       inkscape:export-xdpi="42.700001"
       inkscape:export-ydpi="42.700001">
      <rect
         ry="62.857143"
         y="315.21933"
         x="-691.42859"
         height="411.42856"
         width="291.42856"
         id="rect2826"
         style="fill:#333333;fill-opacity:1;stroke:none;filter:url(#filter3630)" />
      <rect
         ry="62.857143"
         y="307.50504"
         x="-697.71429"
         height="411.42856"
         width="291.42856"
         id="rect2826-6"
         style="fill:#ffffff;fill-opacity:1;stroke:none" />
    </g>
    <path
       style="fill:none;stroke:#000000;stroke-width:10;stroke-miterlimit:4;stroke-opacity:1;stroke-dasharray:none;filter:url(#filter4244-4)"
       d="m 856.45439,825.73653 c -0.18034,-4.20088 -0.81951,-8.97353 -1.96417,-14.35353 -5.99591,-28.18083 -31.85915,-6.38053 -32.78648,-5.59033 l -0.15085,0.15085 -7.10122,3.77725 -0.30218,0.15084 c -9.48229,3.51409 -27.07881,6.15098 -53.78796,-4.53269 -42.73462,-17.09384 -66.55082,-0.69027 -74.48726,7.85667 -7.9364,8.54695 -17.1345,19.05109 -11.02956,47.74437 6.10494,28.69323 33.23975,5.74142 33.23975,5.74142 l 8.00776,-4.38161 0.45303,-0.15084 c 9.49347,-3.34183 26.51609,-5.52999 52.42816,4.83486 42.73462,17.09385 66.55082,0.5392 74.48726,-8.00775 6.44832,-6.94437 13.77456,-15.03592 12.99372,-33.23976 z"
       id="path2958-8-3" />
    <path
       style="fill:#892ca0;stroke:#892ca0;stroke-width:10;stroke-miterlimit:4;stroke-opacity:1;stroke-dasharray:none"
       d="m 855.94931,824.72638 c -0.18034,-4.20088 -0.81951,-8.97353 -1.96417,-14.35353 -5.99591,-28.18083 -31.85915,-6.38053 -32.78648,-5.59033 l -0.15085,0.15085 -7.10122,3.77725 -0.30218,0.15084 c -9.48229,3.51409 -27.07881,6.15098 -53.78797,-4.53269 -42.73461,-17.09384 -66.55081,-0.69027 -74.48725,7.85667 -7.9364,8.54695 -17.1345,19.05109 -11.02956,47.74437 6.10494,28.69323 33.23975,5.74142 33.23975,5.74142 l 8.00776,-4.38161 0.45303,-0.15084 c 9.49347,-3.34183 26.51609,-5.52999 52.42815,4.83486 42.73463,17.09385 66.55083,0.5392 74.48727,-8.00775 6.44832,-6.94437 13.77456,-15.03592 12.99372,-33.23976 z"
       id="path2958-7-0" />
    <path
       style="fill:none;stroke:#892ca0;stroke-width:10;stroke-miterlimit:4;stroke-opacity:1;stroke-dasharray:none"
       d="m 857.45424,718.84881 c -0.18034,-4.20088 -0.81951,-8.97353 -1.96417,-14.35353 -5.99591,-28.18083 -31.85915,-6.38053 -32.78648,-5.59033 l -0.15085,0.15085 -7.10122,3.77725 -0.30218,0.15084 c -9.48229,3.51409 -27.07881,6.15098 -53.78795,-4.53269 -42.73462,-17.09384 -66.55082,-0.69027 -74.48726,7.85667 -7.9364,8.54695 -17.1345,19.05109 -11.02956,47.74437 6.10494,28.69323 33.23975,5.74142 33.23975,5.74142 l 8.00776,-4.38161 0.45303,-0.15084 c 9.49347,-3.34183 26.51609,-5.52999 52.42816,4.83486 42.73461,17.09385 66.55081,0.5392 74.48725,-8.00775 6.44832,-6.94437 13.77456,-15.03592 12.99372,-33.23976 z"
       id="path2958" />
    <path
       style="fill:none;stroke:#000000;stroke-width:10;stroke-miterlimit:4;stroke-opacity:1;stroke-dasharray:none;filter:url(#filter4244)"
       d="m 858.47469,719.67052 c -0.18034,-4.20088 -0.81951,-8.97353 -1.96417,-14.35353 -5.99591,-28.18083 -31.85915,-6.38053 -32.78648,-5.59033 l -0.15085,0.15085 -7.10122,3.77725 -0.30218,0.15084 c -9.48229,3.51409 -27.07881,6.15098 -53.78796,-4.53269 -42.73462,-17.09384 -66.55082,-0.69027 -74.48726,7.85667 -7.9364,8.54695 -17.1345,19.05109 -11.02956,47.74437 6.10494,28.69323 33.23975,5.74142 33.23975,5.74142 l 8.00776,-4.38161 0.45303,-0.15084 c 9.49347,-3.34183 26.51609,-5.52999 52.42816,4.83486 42.73462,17.09385 66.55082,0.5392 74.48726,-8.00775 6.44832,-6.94437 13.77456,-15.03592 12.99372,-33.23976 z"
       id="path2958-8" />
    <path
       style="fill:#892ca0;stroke:#892ca0;stroke-width:10;stroke-miterlimit:4;stroke-opacity:1;stroke-dasharray:none"
       d="m 857.46453,719.16544 c -0.18034,-4.20088 -0.81951,-8.97353 -1.96417,-14.35353 -5.99591,-28.18083 -31.85915,-6.38053 -32.78648,-5.59033 l -0.15085,0.15085 -7.10122,3.77725 -0.30218,0.15084 c -9.48229,3.51409 -27.07881,6.15098 -53.78797,-4.53269 -42.73461,-17.09384 -66.55081,-0.69027 -74.48725,7.85667 -7.9364,8.54695 -17.1345,19.05109 -11.02956,47.74437 6.10494,28.69323 33.23975,5.74142 33.23975,5.74142 l 8.00776,-4.38161 0.45303,-0.15084 c 9.49347,-3.34183 26.51609,-5.52999 52.42815,4.83486 42.73463,17.09385 66.55083,0.5392 74.48727,-8.00775 6.44832,-6.94437 13.77456,-15.03592 12.99372,-33.23976 z"
       id="path2958-7" />
  </g>
</svg>
